<svg width="256" height="35" viewBox="0 0 256 35" fill="none" xmlns="http://www.w3.org/2000/svg">
    <path d="M10.8038 30.0281L19.6992 31.4524L19.3963 34.3009L23.0013 31.8084L35.8684 33.2327L6.36748 23.2819L6.37659 23.7377L10.8038 30.0281Z" fill="#6F99CD"></path>
    <path d="M45.2054 34.3007L35.7543 33.2325L30.998 29.7194L49.0769 28.0103L41.163 31.3929L45.2054 34.3007Z" fill="#6F99CD"></path>
    <path d="M13.77 17.3319L30.4026 9.73234L31.4194 30.0314L13.77 17.3319Z" fill="#6F99CD"></path>
    <path d="M5.92114 11.6314L6.37661 23.5001L13.4364 17.091L5.92114 11.6314Z" fill="#6F99CD"></path>
    <path d="M0 17.9218L0.569339 14.8359L2.04962 16.9723L0 17.9218Z" fill="#6F99CD"></path>
    <path d="M40.7646 7.12126L30.4744 11.1662L30.4027 9.7324L37.1209 6.64651L40.7646 7.12126Z" fill="#9FBCE0"></path>
    <path d="M15.0306 2.37375L13.778 17.3283L18.4466 3.20456L15.0306 2.37375Z" fill="#9FBCE0"></path>
    <path d="M19.4714 0L46.7995 2.61114L13.778 17.3285L19.4714 0Z" fill="#BBD2EC"></path>
    <path d="M35.8684 33.2326L13.4364 17.091L6.36748 23.2818L35.8684 33.2326Z" fill="#BBD2EC"></path>
    <path d="M5.92112 11.6313L6.37659 23.7375L0.569341 14.8359L5.92112 11.6313Z" fill="#BBD2EC"></path>
    <path d="M55.4198 9.53635H64.9169C67.1137 9.53635 68.9929 10.185 70.5543 11.4822C72.1157 12.7795 72.8955 14.3495 72.8938 16.1923V26.0915C72.8938 27.0959 72.3896 27.5967 71.3761 27.5967H69.8558C68.8423 27.5967 68.3356 27.095 68.3356 26.0915V16.1923C68.3337 15.7978 68.2426 15.4094 68.0697 15.0584C67.8968 14.7075 67.6469 14.404 67.3404 14.1726C66.6491 13.6128 65.7919 13.3223 64.9169 13.3515H55.4198V26.0997C55.4198 27.1032 54.9139 27.605 53.9021 27.605H52.3818C51.3683 27.605 50.8616 27.1032 50.8616 26.0997V6.28773C50.8616 5.28605 51.3683 4.78247 52.3818 4.78247H53.9021C54.913 4.78247 55.4198 5.28605 55.4198 6.28773V9.53635Z" fill="black"></path>
    <path d="M79.7342 20.9381C79.7355 21.3327 79.8263 21.7214 79.9993 22.0725C80.1722 22.4235 80.4224 22.7269 80.7294 22.9579C81.4202 23.5188 82.2778 23.8093 83.1529 23.779H89.2314C90.1064 23.8084 90.9637 23.5179 91.6549 22.9579C91.9614 22.7265 92.2112 22.423 92.3841 22.072C92.5571 21.7211 92.6482 21.3326 92.6501 20.9381V11.0389C92.6501 10.0372 93.1559 9.53637 94.1677 9.53637H95.6827C96.6963 9.53637 97.203 10.0372 97.203 11.0389V20.9381C97.203 22.7773 96.4232 24.3455 94.8635 25.6428C93.3038 26.94 91.4247 27.5896 89.2261 27.5914H83.1529C80.9561 27.5914 79.0769 26.9419 77.5155 25.6428C75.9541 24.3437 75.1734 22.7755 75.1734 20.9381V11.0389C75.1734 10.0372 75.6802 9.53637 76.6937 9.53637H78.214C79.2275 9.53637 79.7342 10.0372 79.7342 11.0389V20.9381Z" fill="black"></path>
    <path d="M104.046 26.0861C104.046 27.0896 103.539 27.5914 102.525 27.5914H101.008C99.9941 27.5914 99.4873 27.0896 99.4873 26.0861V16.1924C99.4873 14.355 100.267 12.7868 101.827 11.4877C103.386 10.1886 105.266 9.53997 107.464 9.5418H113.537C115.736 9.5418 117.615 10.1904 119.175 11.4877C120.734 12.785 121.516 14.3532 121.52 16.1924V26.0916C121.52 27.0951 121.014 27.5968 120.002 27.5968H118.482C117.468 27.5968 116.961 27.0951 116.961 26.0916V16.1924C116.959 15.7979 116.868 15.4094 116.695 15.0584C116.523 14.7075 116.273 14.404 115.966 14.1726C115.275 13.6132 114.418 13.3228 113.543 13.3515H107.464C106.589 13.3233 105.732 13.6136 105.041 14.1726C104.734 14.404 104.484 14.7075 104.311 15.0584C104.139 15.4094 104.047 15.7979 104.046 16.1924V26.0861Z" fill="black"></path>
    <path d="M131.778 27.5914C129.579 27.5914 127.7 26.9418 126.141 25.6427C124.581 24.3436 123.8 22.7754 123.798 20.9381V16.1924C123.798 14.355 124.579 12.7868 126.141 11.4877C127.702 10.1886 129.581 9.53998 131.778 9.5418H137.856C140.055 9.5418 141.934 10.1904 143.494 11.4877C145.053 12.785 145.833 14.3532 145.833 16.1924V27.2794C145.833 29.1185 145.053 30.6868 143.494 31.984C141.934 33.2813 140.055 33.9309 137.856 33.9327H134.443C133.429 33.9327 132.923 33.4309 132.923 32.4274V31.6364C132.923 30.6329 133.429 30.1312 134.443 30.1312H137.856C138.731 30.1606 139.589 29.8701 140.28 29.3101C140.942 28.7627 141.275 28.188 141.275 27.6078L131.778 27.5914ZM128.365 20.9381C128.366 21.3327 128.457 21.7214 128.63 22.0724C128.803 22.4235 129.053 22.7269 129.36 22.9579C130.05 23.5187 130.908 23.8093 131.783 23.7789H141.28V16.1924C141.278 15.7979 141.187 15.4096 141.014 15.0588C140.841 14.7079 140.591 14.4043 140.285 14.1726C139.593 13.6136 138.737 13.3233 137.862 13.3515H131.778C130.903 13.3223 130.046 13.6128 129.354 14.1726C129.048 14.404 128.798 14.7075 128.625 15.0584C128.452 15.4094 128.361 15.7979 128.359 16.1924L128.365 20.9381Z" fill="black"></path>
    <path d="M148.112 16.1924C148.112 14.355 148.892 12.7868 150.452 11.4877C152.011 10.1886 153.89 9.53998 156.089 9.5418H159.502C160.516 9.5418 161.023 10.0426 161.023 11.0443V11.838C161.023 12.8397 160.516 13.3433 159.502 13.3433H156.089C155.214 13.315 154.357 13.6054 153.665 14.1643C153.356 14.3954 153.103 14.6997 152.929 15.0523C152.754 15.4048 152.662 15.7955 152.66 16.1924V26.0916C152.66 27.0951 152.153 27.5968 151.139 27.5968H149.622C148.608 27.5968 148.102 27.0951 148.102 26.0916L148.112 16.1924Z" fill="black"></path>
    <path d="M171.284 27.5914C169.087 27.5914 167.208 26.9419 165.647 25.6428C164.085 24.3437 163.305 22.7755 163.307 20.9381V11.0389C163.307 10.0372 163.814 9.53637 164.827 9.53637H166.348C167.358 9.53637 167.864 10.0372 167.865 11.0389V20.9381C167.867 21.3326 167.958 21.7211 168.131 22.072C168.304 22.423 168.554 22.7265 168.86 22.9579C169.552 23.5179 170.409 23.8084 171.284 23.779H180.781V11.0389C180.781 10.0372 181.288 9.53637 182.301 9.53637H183.822C184.835 9.53637 185.342 10.0372 185.342 11.0389V27.2739C185.342 29.1131 184.561 30.6813 183 31.9786C181.438 33.2759 179.559 33.9254 177.362 33.9272H173.949C172.936 33.9272 172.431 33.4264 172.431 32.422V31.631C172.431 30.6266 172.936 30.1257 173.949 30.1257H177.362C178.238 30.1561 179.095 29.8655 179.786 29.3047C180.45 28.7573 180.781 28.1826 180.781 27.6024L171.284 27.5914Z" fill="black"></path>
    <path d="M192.179 9.51997L201.676 9.53639C203.873 9.53639 205.752 10.185 207.314 11.4823C208.875 12.7796 209.655 14.3496 209.653 16.1924V20.9436C209.653 22.7828 208.873 24.351 207.314 25.6483C205.754 26.9456 203.875 27.5951 201.676 27.5969H195.598C193.399 27.5969 191.52 26.9474 189.961 25.6483C188.401 24.3492 187.621 22.781 187.621 20.9436V6.28774C187.621 5.28605 188.128 4.78247 189.139 4.78247H190.659C191.673 4.78247 192.179 5.28605 192.179 6.28774V9.51997ZM192.179 20.9381C192.181 21.3328 192.271 21.7215 192.444 22.0725C192.617 22.4236 192.867 22.727 193.174 22.958C193.865 23.5184 194.723 23.8089 195.598 23.779H201.676C202.551 23.8084 203.409 23.518 204.1 22.958C204.407 22.727 204.657 22.4236 204.83 22.0725C205.003 21.7215 205.094 21.3328 205.095 20.9381V16.1924C205.093 15.7979 205.002 15.4095 204.829 15.0585C204.656 14.7076 204.406 14.4041 204.1 14.1726C203.408 13.6137 202.551 13.3233 201.676 13.3516H192.179V20.9381Z" fill="black"></path>
    <path d="M216.491 7.08143C216.491 8.08312 215.985 8.58397 214.973 8.58397H213.453C212.439 8.58397 211.933 8.08312 211.933 7.08143V6.28774C211.933 5.28605 212.439 4.78247 213.453 4.78247H214.973C215.984 4.78247 216.491 5.28605 216.491 6.28774V7.08143ZM216.491 26.0862C216.491 27.0897 215.985 27.5914 214.973 27.5914H213.453C212.439 27.5914 211.933 27.0897 211.933 26.0862V11.0334C211.933 10.0318 212.439 9.53092 213.453 9.53092H214.973C215.983 9.53092 216.489 10.0318 216.491 11.0334V26.0862Z" fill="black"></path>
    <path d="M218.77 16.1923C218.77 14.355 219.551 12.7868 221.112 11.4877C222.674 10.1886 224.553 9.53997 226.75 9.5418H230.163C231.176 9.5418 231.683 10.0426 231.683 11.0443V11.838C231.683 12.8397 231.176 13.3433 230.163 13.3433H226.75C225.875 13.3141 225.017 13.6045 224.326 14.1643C224.02 14.3957 223.77 14.6992 223.597 15.0502C223.424 15.4011 223.333 15.7896 223.331 16.1841V26.0832C223.331 27.0867 222.824 27.5885 221.811 27.5885H220.29C219.277 27.5885 218.77 27.0867 218.77 26.0832V16.1923Z" fill="black"></path>
    <path d="M251.442 6.28774C251.442 5.28605 251.949 4.78247 252.962 4.78247H254.48C255.493 4.78247 256 5.28605 256 6.28774V20.9381C256 22.7773 255.22 24.3455 253.661 25.6428C252.101 26.9401 250.222 27.5896 248.023 27.5914H241.934C239.736 27.5914 237.856 26.9419 236.297 25.6428C234.737 24.3437 233.957 22.7755 233.957 20.9381V16.1924C233.957 14.3551 234.737 12.7869 236.297 11.4878C237.856 10.1887 239.736 9.53821 241.934 9.53639L251.431 9.51997L251.442 6.28774ZM251.442 13.3379H241.934C241.059 13.3087 240.202 13.5991 239.511 14.1589C239.203 14.3923 238.953 14.6983 238.781 15.0517C238.609 15.4052 238.52 15.7961 238.521 16.1924V20.9436C238.522 21.3382 238.613 21.7269 238.786 22.078C238.959 22.429 239.209 22.7324 239.516 22.9634C240.207 23.5242 241.064 23.8148 241.939 23.7845H248.018C248.893 23.8138 249.75 23.5234 250.441 22.9634C250.748 22.7319 250.998 22.4284 251.171 22.0775C251.344 21.7266 251.435 21.3381 251.437 20.9436L251.442 13.3379Z" fill="black"></path>
</svg>