<svg class="rtl-scalex-n1 position-absolute start-0 top-0 z-index-1 text-danger-gradient mx-3 mt-n5 aos-init aos-animate" fill="currentColor" data-aos="fade-up" data-aos-delay="200">
                <path d="M35.2,1.6c37.3,18.9,72.2,41.8,107.4,64.1c-0.2,0.4-0.4,0.8-0.6,1.2c-1.9-0.8-3.9-1.5-5.6-2.5c-30.3-17-60.6-34.1-91-51.1c-4.1-2.3-8.1-4.6-12.2-6.9c-2.3-1.2-2.8-2.7-1-4.7C33.2,1.6,34.2,1.6,35.2,1.6z">
                </path>
                <path d="M137.4,81.7C93.8,56.6,50.2,31.6,6.6,6.5C6.1,6.2,6.1,5.1,5.2,2.5c4.4,1.6,7.6,2.4,10.5,3.9c10,5.3,20,10.6,29.7,16.5c29.9,18.5,59.6,37.2,89.4,55.9c1.1,0.7,2.1,1.5,3.1,2.2C137.7,81.2,137.6,81.5,137.4,81.7z">
                </path>
                <path d="M122.8,88.8C87.6,68.9,52.4,49,17.2,29c-0.6-0.4-0.8-1.6-1.9-4c3.7,1.1,6.3,1.3,8.3,2.5c20.1,11.4,40.3,22.7,60.1,34.5 c12.1,7.2,23.8,15.3,35.6,23.1c1.4,0.9,2.6,1.9,3.9,2.9C123.1,88.3,122.9,88.6,122.8,88.8z">
                </path>
                <path d="M111.3,103.9c-1.8-1-3.7-1.9-5.5-2.9c-27-15.4-54.1-30.8-81-46.3c-2.1-1.2-5.3-5.2-5.1-5.4c2.8-3.3,5.4-0.2,7.6,1.2c27.6,17,55.2,34.1,82.7,51.3c0.6,0.4,1.2,0.9,1.7,1.4C111.6,103.3,111.5,103.6,111.3,103.9z">
                </path>
            </svg>